<svg xmlns="http://www.w3.org/2000/svg" xmlns:xlink="http://www.w3.org/1999/xlink" viewBox="0 0 50 50" xmlns:v="https://vecta.io/nano"><circle cx="25" cy="25" r="24.541" fill="#fdc64a"/><g fill="#fff"><path d="M12.255 39.717a1.21 1.21 0 0 0-.344-.041c-.26 0-.472.068-.635.205-.184.153-.276.373-.276.662 0 .225.073.408.218.553a.78.78 0 0 0 .573.216c.161 0 .314-.04.459-.12l-.083.369-.066.371c-.182.07-.416.105-.701.105-.516 0-.957-.174-1.323-.521-.397-.378-.596-.869-.596-1.475 0-.56.171-1.013.513-1.357.365-.368.868-.552 1.511-.552.309 0 .533.018.671.054l.079 1.531z"/><path d="M15.773 38.182l-.056 1.58-.024 2.045c-.417.15-.841.225-1.274.225-.534 0-.94-.106-1.218-.319-.236-.181-.403-.462-.5-.845-.057-.22-.111-.622-.161-1.206l-.09-1.479h1.575l-.029 1.05.005 1.149c.001.378.034.633.098.765.067.14.2.21.4.21a.46.46 0 0 0 .19-.049l-.029-1.6-.09-1.525h1.203zm3.364 1.479c0 .462-.148.832-.443 1.109s-.688.417-1.176.417l-.029.744h-1.345l-.071-1.818-.1-1.932c.254-.051.626-.076 1.116-.076.597 0 1.076.12 1.436.359.408.272.612.672.612 1.197zm-1.013.41c0-.254-.15-.381-.452-.381a1.05 1.05 0 0 0-.11.007l-.024.855c.391-.013.586-.173.586-.481zm5.449-.094c0 .574-.148 1.06-.444 1.457-.311.415-.709.623-1.194.623-.5 0-.904-.21-1.213-.628-.292-.394-.437-.878-.437-1.452 0-.614.159-1.096.476-1.445.299-.329.691-.494 1.174-.494.475 0 .863.166 1.162.496.318.351.476.831.476 1.443zm-1.174.429c0-.453-.153-.68-.459-.68-.298 0-.447.229-.447.684 0 .183.039.353.117.511.088.178.196.267.325.267s.236-.091.332-.271a1.07 1.07 0 0 0 .132-.511zm3.909-2.224l-.1 1.535c-.061-.01-.188-.023-.383-.041l-.416-.01-.041.786c.168.003.427-.009.777-.036l-.075.361-.059.358c-.046-.01-.152-.024-.316-.044a3.37 3.37 0 0 0-.361-.01l-.02.85h-1.37l-.076-1.914-.11-1.836h2.55z"/><use xlink:href="#B"/><path d="M34.304 38.182l-.109 1.955-.068 1.795H32.88l-.026-.82-.179.07-.225.11-.127-.3c-.025-.065-.068-.157-.129-.276l-.024 1.216h-1.374l-.071-1.795-.11-1.955h1.715l-.115 2.31c.119.012.232.015.342.01l.283-.02-.125-2.3h1.589zm3.185 3.75h-1.336l-.09-.324c-.037.014-.131.063-.281.148a2.98 2.98 0 0 0-.319.246l-.14-.295-.119-.246-.132.471h-.708l.483-1.99.335-1.76h1.467l.373 1.785.467 1.965zm-1.541-.801l-.146-.42-.192-.444-.176.464-.156.506a4.19 4.19 0 0 0 .332-.029c.104-.017.217-.041.338-.077z"/><use xlink:href="#B" x="10.09"/></g><path d="M32.841 13.323h-1.912v-1.53c0-.106-.044-.207-.121-.279a.38.38 0 0 0-.287-.103l-.14.01a84.2 84.2 0 0 1-11.142 0l-.14-.01c-.106-.008-.21.029-.287.102s-.121.174-.121.28v1.53h-1.53c-.422 0-.765.342-.765.765v.765c0 .422.342.765.765.765h.459l.391 3.911a.75.75 0 0 0-.411.769l1.055 8.796c.029.236.165.445.369.566l.434 4.353c.02.196.185.345.382.344h9.941a.38.38 0 0 0 .382-.344l.436-4.353c.204-.121.34-.33.369-.566l1.055-8.796a.75.75 0 0 0-.411-.769l.389-3.911h.839c.422 0 .765-.342.765-.765v-.765c0-.422-.342-.765-.764-.765zm-13.385-1.121c3.566.226 7.142.226 10.708 0v1.121H19.456v-1.121zm9.981 21.39h-9.253l-.382-3.824H29.82l-.383 3.824zm.772-4.589H19.413l-1.056-8.796h12.905l-1.053 8.796zm.643-9.561H18.769l-.382-3.824h12.847l-.382 3.824zm.803-4.589H17.161v-.765H32.84v.765h-1.185zm-11.848 3.824a.24.24 0 0 0 .038 0c.101-.01.194-.06.259-.139a.38.38 0 0 0 .084-.281l-.153-1.53c-.021-.21-.209-.364-.419-.342s-.364.209-.342.419l.153 1.53a.38.38 0 0 0 .38.343zm1.224 11.857c-.101.01-.194.06-.258.138a.38.38 0 0 0-.084.28l.153 1.53c.02.195.184.344.38.344.013 0 .026 0 .038-.002.101-.01.194-.06.258-.138a.38.38 0 0 0 .084-.28l-.153-1.53c-.02-.209-.208-.363-.418-.342zm-1.243-8.035c.101-.012.193-.064.255-.143a.38.38 0 0 0 .079-.282l-.092-.765c-.025-.21-.216-.359-.425-.334a.38.38 0 0 0-.334.425l.092.765c.023.192.186.337.379.337l.046-.003zm.092.77c-.101.012-.193.064-.255.143a.38.38 0 0 0-.079.282l.459 3.824c.023.192.186.337.379.337.015 0 .031-.001.046-.003.101-.012.193-.064.255-.143a.38.38 0 0 0 .079-.282l-.459-3.824c-.012-.101-.064-.193-.143-.255a.38.38 0 0 0-.282-.079zm7.197-14.776c0 .649.244.997.44 1.276.119.171.355.213.526.093s.213-.355.093-.526l-.001-.001c-.176-.251-.303-.432-.303-.843s.127-.592.303-.843c.196-.279.44-.628.44-1.276s-.244-.997-.44-1.277c-.12-.17-.356-.211-.526-.09a.38.38 0 0 0-.092.525c.176.25.303.431.303.843s-.127.592-.303.843c-.196.279-.44.627-.44 1.276zm-2.825 0c0 .65.244.997.44 1.277.12.17.356.211.526.09a.38.38 0 0 0 .092-.524c-.176-.25-.303-.431-.303-.843s.127-.592.304-.844c.196-.279.44-.627.44-1.275s-.244-.997-.44-1.276c-.119-.171-.355-.213-.526-.093s-.213.355-.093.526c.177.253.304.434.304.845s-.127.591-.303.843c-.197.276-.441.624-.441 1.274zm-2.826 0c0 .649.244.997.44 1.276.119.171.355.213.526.093s.213-.355.093-.526l-.001-.002c-.176-.251-.303-.432-.303-.843s.127-.592.303-.843c.196-.279.44-.628.44-1.276s-.244-.997-.44-1.277c-.12-.17-.356-.211-.526-.09a.38.38 0 0 0-.092.524c.176.25.303.431.303.843s-.127.592-.303.843c-.196.281-.44.629-.44 1.278z" fill="#474648"/><path d="M25.016 22.924c.087-.177.188-.327.317-.458a1.46 1.46 0 0 1 1.94-.101c.445.368.67.847.684 1.423.005.234-.082.447-.19.651-.216.406-.513.748-.832 1.074-.57.581-1.202 1.089-1.863 1.561-.029.021-.052.045-.098.012-.721-.516-1.408-1.071-2.017-1.719-.26-.276-.494-.572-.682-.904-.325-.575-.231-1.126.093-1.659a1.52 1.52 0 0 1 1.056-.741 1.44 1.44 0 0 1 1.546.773l.046.088z" fill="#fff"/><path d="M25.016 27.277c-.049 0-.097-.016-.143-.048-.846-.606-1.496-1.159-2.044-1.742-.298-.317-.529-.624-.707-.937-.331-.585-.3-1.185.096-1.836.277-.454.672-.73 1.174-.822.097-.018.196-.027.293-.027a1.62 1.62 0 0 1 1.33.71c.059-.085.123-.163.192-.233a1.63 1.63 0 0 1 1.154-.475c.376 0 .739.129 1.021.362.481.397.732.92.747 1.554.007.29-.109.546-.21.737-.241.453-.571.818-.862 1.114-.518.528-1.135 1.045-1.887 1.581l-.005.003c-.021.02-.072.059-.149.059zm-1.329-5.062a1.29 1.29 0 0 0-.231.021c-.4.073-.716.295-.938.66-.329.54-.358 1.01-.091 1.482.164.289.379.573.657.87.519.552 1.134 1.078 1.93 1.652.715-.513 1.303-1.007 1.796-1.509.273-.279.583-.62.803-1.034.086-.163.174-.357.169-.565-.013-.528-.221-.963-.621-1.292-.22-.182-.504-.282-.799-.282a1.28 1.28 0 0 0-.906.371c-.111.112-.201.243-.284.412-.029.059-.088.096-.154.098s-.127-.036-.157-.092l-.047-.09a1.26 1.26 0 0 0-1.127-.702z" fill="#fdc64a"/><defs ><path id="B" d="M30.471 38.182l-.071 1.535-.305-.036-.42-.015-.051.695-.088 1.57h-1.182l-.074-1.551-.051-.715-.386.015-.349.036-.062-1.535h3.039z"/></defs></svg>